<svg width="19" height="16" viewBox="0 0 19 16" fill="none" xmlns="http://www.w3.org/2000/svg">
<path d="M3.58708 6.78878H16.5329C16.7111 6.78277 16.8895 6.78599 17.0673 6.7984C17.7023 6.86254 18.1245 7.30935 18.1363 7.91009C18.1438 8.5322 17.7087 8.99719 17.0513 9.05919C16.876 9.07522 16.6975 9.06667 16.5168 9.06667H3.58708C3.75918 9.28045 3.86928 9.42797 3.98579 9.56693C5.19689 11.0239 6.41333 12.4755 7.62015 13.9367C8.02634 14.4295 8.03489 15.0056 7.67787 15.4418C7.5207 15.6368 7.30206 15.7728 7.05763 15.8275C6.81321 15.8823 6.55744 15.8526 6.33209 15.7432C6.14644 15.6415 5.98235 15.5046 5.84894 15.3402C4.01822 13.1567 2.19177 10.9687 0.369603 8.77592C-0.12638 8.17839 -0.124242 7.67172 0.38243 7.06564C2.19248 4.88573 4.00681 2.71224 5.82542 0.545169C6.34599 -0.0769483 7.01407 -0.169946 7.54212 0.28328C8.04131 0.710851 8.06269 1.39283 7.57419 1.98395C6.37841 3.42914 5.178 4.87148 3.97296 6.31097C3.865 6.43283 3.76239 6.56751 3.58708 6.78878Z" fill="#252525"/>
</svg>
