<svg width="265" height="265" viewBox="0 0 265 265" fill="none" xmlns="http://www.w3.org/2000/svg">
<path d="M50.1015 10C52.8629 10 55.1015 7.76142 55.1015 5C55.1015 2.23857 52.8629 -1.90735e-06 50.1015 0L50.1015 10ZM0.106317 52.7196C0.227581 55.4783 2.5623 57.6164 5.32106 57.4952C8.07982 57.3739 10.2179 55.0392 10.0967 52.2804L0.106317 52.7196ZM50.1015 0C40.6862 6.67572e-06 27.4596 0.402725 16.9204 7.54919C5.86737 15.044 -0.939588 28.9252 0.106317 52.7196L10.0967 52.2804C9.14258 30.5748 15.3356 20.706 22.5326 15.8258C30.2434 10.5973 40.5168 10 50.1015 10L50.1015 0Z" fill="white"/>
<path d="M254.102 50.6015C254.102 53.3629 256.34 55.6015 259.102 55.6015C261.863 55.6015 264.102 53.3629 264.102 50.6015L254.102 50.6015ZM211.382 0.606315C208.623 0.727579 206.485 3.0623 206.606 5.82106C206.728 8.57982 209.062 10.7179 211.821 10.5967L211.382 0.606315ZM264.102 50.6015C264.102 41.1862 263.699 27.9596 256.552 17.4204C249.058 6.36737 235.176 -0.439589 211.382 0.606315L211.821 10.5967C233.527 9.64257 243.396 15.8356 248.276 23.0326C253.504 30.7434 254.102 41.0168 254.102 50.6015L264.102 50.6015Z" fill="white"/>
<path d="M214 255C211.239 255 209 257.239 209 260C209 262.761 211.239 265 214 265L214 255ZM263.995 212.28C263.874 209.522 261.539 207.384 258.781 207.505C256.022 207.626 253.884 209.961 254.005 212.72L263.995 212.28ZM214 265C223.415 265 236.642 264.597 247.181 257.451C258.234 249.956 265.041 236.075 263.995 212.28L254.005 212.72C254.959 234.425 248.766 244.294 241.569 249.174C233.858 254.403 223.585 255 214 255L214 265Z" fill="white"/>
<path d="M10 214.398C10 211.637 7.76143 209.398 5 209.399C2.23858 209.399 4.36912e-06 211.637 5.91435e-06 214.399L10 214.398ZM52.7196 264.394C55.4783 264.272 57.6164 261.938 57.4952 259.179C57.3739 256.42 55.0392 254.282 52.2804 254.403L52.7196 264.394ZM5.91435e-06 214.399C1.13554e-05 223.814 0.402728 237.04 7.54919 247.58C15.044 258.633 28.9252 265.44 52.7196 264.394L52.2804 254.403C30.5748 255.357 20.706 249.164 15.8258 241.967C10.5973 234.257 10 223.983 10 214.398L5.91435e-06 214.399Z" fill="white"/>
</svg>
