<svg width="49" height="49" viewBox="0 0 49 49" fill="none" xmlns="http://www.w3.org/2000/svg">
<path d="M27.9491 23.6946H33.6142V26.716H38.9017" stroke="#252525" stroke-width="4"/>
<path d="M29.4599 29.7375V34.2697H24.1724V39.5572" stroke="#252525" stroke-width="4"/>
<path d="M39.657 32.759V37.2912H34.3695" stroke="#252525" stroke-width="4"/>
<path d="M17.7516 24.0725H23.4167V16.1412H27.5712V9.7207" stroke="#252525" stroke-width="4"/>
<path d="M9.44281 24.0723H12.4642" stroke="#252525" stroke-width="4"/>
<path d="M11.7088 5.80005C13.0895 5.80005 14.2088 4.68076 14.2088 3.30005C14.2088 1.91934 13.0895 0.800049 11.7088 0.800049V5.80005ZM0.899902 11.609C0.899902 12.9897 2.01919 14.109 3.3999 14.109C4.78061 14.109 5.8999 12.9897 5.8999 11.609H0.899902ZM11.7088 0.800049H4.3999V5.80005H11.7088V0.800049ZM0.899902 4.30005V11.609H5.8999V4.30005H0.899902ZM4.3999 0.800049C2.46691 0.800049 0.899902 2.36705 0.899902 4.30005H5.8999C5.8999 5.12848 5.22833 5.80005 4.3999 5.80005V0.800049Z" fill="#252525"/>
<path d="M5.8999 37.2912C5.8999 35.9105 4.78061 34.7912 3.3999 34.7912C2.01919 34.7912 0.899902 35.9105 0.899902 37.2912L5.8999 37.2912ZM11.7088 48.1001C13.0895 48.1001 14.2088 46.9808 14.2088 45.6001C14.2088 44.2194 13.0895 43.1001 11.7088 43.1001L11.7088 48.1001ZM0.899902 37.2912L0.899902 44.6001L5.8999 44.6001L5.8999 37.2912L0.899902 37.2912ZM4.3999 48.1001L11.7088 48.1001L11.7088 43.1001L4.3999 43.1001L4.3999 48.1001ZM0.899902 44.6001C0.899902 46.5331 2.4669 48.1001 4.3999 48.1001L4.3999 43.1001C5.22833 43.1001 5.8999 43.7717 5.8999 44.6001L0.899902 44.6001Z" fill="#252525"/>
<path d="M37.391 43.1001C36.0103 43.1001 34.891 44.2194 34.891 45.6001C34.891 46.9808 36.0102 48.1001 37.391 48.1001L37.391 43.1001ZM48.1999 37.2912C48.1999 35.9105 47.0806 34.7912 45.6999 34.7912C44.3192 34.7912 43.1999 35.9105 43.1999 37.2912L48.1999 37.2912ZM37.391 48.1001L44.6999 48.1001L44.6999 43.1001L37.391 43.1001L37.391 48.1001ZM48.1999 44.6001L48.1999 37.2912L43.1999 37.2912L43.1999 44.6001L48.1999 44.6001ZM44.6999 48.1001C46.6329 48.1001 48.1999 46.5331 48.1999 44.6001L43.1999 44.6001C43.1999 43.7717 43.8715 43.1001 44.6999 43.1001L44.6999 48.1001Z" fill="#252525"/>
<path d="M43.1999 11.609C43.1999 12.9897 44.3192 14.109 45.6999 14.109C47.0806 14.109 48.1999 12.9897 48.1999 11.609L43.1999 11.609ZM37.391 0.800048C36.0103 0.800048 34.891 1.91934 34.891 3.30005C34.891 4.68076 36.0102 5.80005 37.391 5.80005L37.391 0.800048ZM48.1999 11.609L48.1999 4.30005L43.1999 4.30005L43.1999 11.609L48.1999 11.609ZM44.6999 0.800049L37.391 0.800048L37.391 5.80005L44.6999 5.80005L44.6999 0.800049ZM48.1999 4.30005C48.1999 2.36705 46.6329 0.800049 44.6999 0.800049L44.6999 5.80005C43.8715 5.80005 43.1999 5.12847 43.1999 4.30005L48.1999 4.30005Z" fill="#252525"/>
<rect x="11.4428" y="11.343" width="5.81964" height="5.81964" stroke="#252525" stroke-width="4"/>
<rect x="11.4428" y="30.9822" width="5.81964" height="5.81964" stroke="#252525" stroke-width="4"/>
<rect x="33.3482" y="11.343" width="5.81964" height="5.81964" stroke="#252525" stroke-width="4"/>
</svg>
