<svg width="280" height="95" viewBox="0 0 280 95" fill="none" xmlns="http://www.w3.org/2000/svg">
<g clip-path="url(#clip0_126_6)">
<path d="M81.0928 40.9951C80.8339 37.0978 79.2548 26.2631 78.5041 21.2944C78.4043 20.5535 78.0497 19.8747 77.5052 19.3827C76.9607 18.8907 76.2629 18.6184 75.5399 18.6159H53.0566C52.4287 18.6203 51.8191 18.8355 51.3196 19.2292C50.8201 19.6229 50.4576 20.1737 50.2866 20.7988C43.0381 47.2361 39.2456 62.1287 38.6372 83.1821H47.9308C47.9308 83.1821 49.5876 59.8386 53.9109 58.8074L75.8117 59.4904C75.8117 59.4904 76.4848 78.0393 76.8084 83.1821H88.0954C86.4386 63.6689 81.4164 46.1512 81.0928 40.9951ZM72.4075 49.4325C69.4693 49.4325 63.3469 49.7673 57.8587 48.2137C57.8587 48.2137 59.5155 37.2183 65.4826 36.8701C71.4497 36.5219 75.1387 49.4325 72.4075 49.4325Z" fill="#E59E33"/>
<path d="M122.176 49.0173C125.93 49.0173 141.592 47.3968 140.66 33.1335C139.728 18.8703 129.697 18.5355 94.5932 18.6962V84.0392H103.058L104.625 41.6245C110.579 91.8873 155.714 94.8069 155.714 94.8069V91.5659C126.564 83.3963 118.41 49.0173 122.176 49.0173ZM119.588 42.4013C113.504 41.7183 111.032 37.4728 110.708 32.196C110.708 32.196 118.94 30.3478 125.141 32.8791C131.612 35.5174 125.684 43.0843 119.601 42.4013H119.588Z" fill="#E59E33"/>
<path d="M135.625 2.22318L137.359 14.0222C137.359 14.0222 154.95 9.14721 155.196 28.9015C155.442 48.6557 159.403 86.3294 159.403 86.3294H167.091C167.091 86.3294 168.088 25.5667 168.826 22.0444C169.564 18.5221 171.039 15.8837 175.764 15.8837H185.187C185.187 15.8837 186.481 2.03569 188.902 2.29015C191.322 2.54461 159.895 -2.89283 135.625 2.22318Z" fill="#E59E33"/>
<path d="M188.164 18.2007V83.7178H226.154V73.6867C216.252 75.7358 197.457 81.2535 197.263 70.2046C197.069 59.1556 201.612 49.3253 206.169 49.1111V44.1959L201.431 43.6201C201.03 38.263 206.169 32.9059 212.498 33.1469C218.828 33.388 227.332 37.0308 227.332 37.0308V18.2007H188.164Z" fill="#E59E33"/>
<path d="M31.4275 16.473V34.7407C21.6809 35.0487 11.6494 40.0978 15.2996 56.7717C18.9497 73.4456 31.4275 73.767 31.4275 73.767V82.5526H14.523C-2.88643 66.093 0.207134 49.0709 0.207134 43.1513C0.207134 37.2317 8.90535 14.5847 31.4275 16.473Z" fill="#E59E33"/>
<path d="M274.408 18.8569C274.408 18.8569 236.535 9.21416 237.609 29.2898C238.282 41.9192 246.333 42.2272 255.627 50.1825C264.364 57.6556 283.016 75.1465 235.926 76.3786V82.3116C235.926 82.3116 277.347 87.7892 279.935 60.7761C281.734 41.6245 256.002 44.5173 249.181 36.2674C245.065 31.3255 250.566 25.6336 275.263 26.6381L274.408 18.8569Z" fill="#E59E33"/>
</g>
<defs>
<clipPath id="clip0_126_6">
<rect width="280" height="94.74" fill="white"/>
</clipPath>
</defs>
</svg>
