<svg width="51" height="51" viewBox="0 0 51 51" fill="none" xmlns="http://www.w3.org/2000/svg">
<g clip-path="url(#clip0_126_126)">
<path d="M0 0H18.2003V18.2109H0V0ZM3.66252 3.65451V14.5455H14.5595V3.65451H3.66252Z" fill="white"/>
<path d="M18.2184 50.9964H0V32.7818H18.2184V50.9964ZM3.65528 47.3346H14.5523V36.4399H3.65528V47.3346Z" fill="white"/>
<path d="M25.5145 50.9964V47.3564H36.4441V43.7091H40.0994V50.9964H25.5145Z" fill="white"/>
<path d="M3.64804 25.5018H0V21.8546H3.64804V25.5018Z" fill="white"/>
<path d="M43.7293 50.9964V47.3564H47.3773C47.3773 48.5733 47.3773 49.7903 47.3773 51.0036L43.7293 50.9964Z" fill="white"/>
<path d="M50.9964 18.2001H32.8105V0.0217285H50.9964V18.2001ZM36.4513 14.5528H47.352V3.66174H36.4513V14.5528Z" fill="white"/>
<path d="M47.3773 43.7345H40.0777V36.4291H32.7816C32.7816 35.2218 32.7816 34.0048 32.7816 32.7782H43.3417H43.7039V25.509H47.3266V21.8871H50.9674V29.1309H47.3447V36.4327H43.7221V40.0836H47.3447L47.3773 43.7345Z" fill="white"/>
<path d="M25.5145 21.8509H21.8918V14.5782H25.4964V10.9309H21.8737V0.0217285H29.1191V3.64363H25.5145V7.29089H29.1372V18.2109H25.5145V21.8582V21.8509Z" fill="white"/>
<path d="M25.5145 32.7855H21.8737V29.1636H10.9477V25.5018H7.28519V21.8799H14.5668V25.4729C14.6155 25.4861 14.6652 25.4957 14.7153 25.5018H25.5145C25.5145 25.6141 25.5145 25.73 25.5145 25.8423C25.5145 28.153 25.5145 30.4675 25.5145 32.7855Z" fill="white"/>
<path d="M36.4332 29.1201V25.4982H32.8105V21.8763H40.0559V29.1201H36.4332Z" fill="white"/>
<path d="M25.5145 21.8582H29.1372V25.4801H25.5145V21.8582Z" fill="white"/>
<path d="M7.29245 25.4946V29.1165H3.63716V25.4946H7.29245Z" fill="white"/>
<path d="M29.1553 32.7855V29.1635H32.778V32.7855H29.1372H29.1553Z" fill="white"/>
<path d="M25.5145 36.4291C25.5145 35.2121 25.5145 33.9952 25.5145 32.7782H29.1661C29.1661 33.9952 29.1661 35.2121 29.1661 36.4291H25.5145Z" fill="white"/>
<path d="M47.3665 36.4291H50.9891V40.051H47.3665V36.4218V36.4291Z" fill="white"/>
<path d="M47.3665 47.3564V43.7091H50.9891V47.3564H47.3665Z" fill="white"/>
<path d="M25.5145 47.3564H21.8918V36.4291H25.5145V40.0727H29.1661V43.7345H25.5145V47.3564Z" fill="white"/>
<path d="M7.29968 10.9055V7.28363H10.9224V10.9055H7.29968Z" fill="white"/>
<path d="M10.9115 43.6983H7.28882V40.0764H10.9115V43.6983Z" fill="white"/>
<path d="M30.9739 40.8297C32.4004 40.8297 33.5568 39.6735 33.5568 38.2473C33.5568 36.821 32.4004 35.6649 30.9739 35.6649C29.5473 35.6649 28.3909 36.821 28.3909 38.2473C28.3909 39.6735 29.5473 40.8297 30.9739 40.8297Z" fill="white"/>
<path d="M32.7924 40.0655H36.4441V43.7345H32.7924V40.0655Z" fill="white"/>
<path d="M40.103 7.29453H43.7257V10.9164H40.103V7.29453Z" fill="white"/>
</g>
<defs>
<clipPath id="clip0_126_126">
<rect width="51" height="51" fill="white"/>
</clipPath>
</defs>
</svg>
